<svg xmlns="http://www.w3.org/2000/svg" width="23.644" height="15.046" viewBox="0 0 23.644 15.046">
  <path id="Icon_material-group" data-name="Icon material-group" d="M17.621,13.948A3.224,3.224,0,1,0,14.4,10.724,3.211,3.211,0,0,0,17.621,13.948Zm-8.6,0A3.224,3.224,0,1,0,5.8,10.724,3.211,3.211,0,0,0,9.023,13.948Zm0,2.149c-2.5,0-7.523,1.257-7.523,3.762v2.687H16.546V19.86C16.546,17.355,11.527,16.1,9.023,16.1Zm8.6,0c-.312,0-.666.021-1.043.054A4.535,4.535,0,0,1,18.7,19.86v2.687h6.448V19.86C25.144,17.355,20.125,16.1,17.621,16.1Z" transform="translate(-1.5 -7.5)" fill="#333"/>
</svg>
