<svg xmlns="http://www.w3.org/2000/svg" width="21.254" height="21.262" viewBox="0 0 21.254 21.262">
  <path id="Icon_awesome-teamspeak" data-name="Icon awesome-teamspeak" d="M10.141,14.4c.1-.511-.5-1.246-1.345-2.022a14.039,14.039,0,0,0-2.633-1.935,1.227,1.227,0,0,0-1.923.943,4.11,4.11,0,0,0,.6,3.069,2.228,2.228,0,0,0,1.8,1,13.751,13.751,0,0,0,2.562-.042A1.308,1.308,0,0,0,10.141,14.4Zm8.513.864a.217.217,0,0,0-.345.1c-.332,1.055-1.856,4.672-7.147,5.046-6.217.436,3.335,1.811,6.038-.266A3.807,3.807,0,0,0,19.136,16.6a2.2,2.2,0,0,0-.482-1.333Zm2.575-5.083a1.867,1.867,0,0,0-1.08-1.752.362.362,0,0,1-.245-.266,9.246,9.246,0,0,0-1.678-3.887c-.046-.062-.145-.133-.091-.208.353-.478-.012-.747-.291-1.013A9.923,9.923,0,0,0,7.367.543a9.219,9.219,0,0,0-4.236,2.8c-.166.179-.278.378-.125.6.125.166.054.257-.042.386A9.4,9.4,0,0,0,1.333,8.138a.4.4,0,0,1-.266.324A1.8,1.8,0,0,0,.033,9.874L0,10.974v.868a1.926,1.926,0,0,0,2.151,2.035.457.457,0,0,0,.5-.478c.083-3.218-.1-3.962.154-5.224A8,8,0,0,1,14.339,2.715a7.793,7.793,0,0,1,4.248,7.035c.033,1.171,0,2.346,0,3.513,0,.291.091.519.39.59a1.892,1.892,0,0,0,2.209-1.524,12.779,12.779,0,0,0,.042-2.147ZM14.6,15.642a2.314,2.314,0,0,0,2.425-2.512c-.087-1.877-2.749-.685-3.646-.332-3.04,1.167-1.869,2.28-.922,2.525Z" transform="translate(0 0.002)" fill="#333"/>
</svg>
