<svg xmlns="http://www.w3.org/2000/svg" width="18.159" height="20.177" viewBox="0 0 18.159 20.177">
  <path id="Icon_material-event-available" data-name="Icon material-event-available" d="M18.15,11.649,17.08,10.58,12.157,15.5l-2.139-2.139L8.949,14.433l3.208,3.208Zm2.492-8.131H19.633V1.5H17.615V3.518H9.544V1.5H7.527V3.518H6.518A2.009,2.009,0,0,0,4.51,5.535L4.5,19.659a2.017,2.017,0,0,0,2.018,2.018H20.642a2.024,2.024,0,0,0,2.018-2.018V5.535A2.024,2.024,0,0,0,20.642,3.518Zm0,16.142H6.518V8.562H20.642Z" transform="translate(-4.5 -1.5)" fill="#333"/>
</svg>
